<svg width="18" height="14" viewBox="0 0 18 14" fill="none" xmlns="http://www.w3.org/2000/svg">
<path d="M0.666626 0.958344C0.666626 0.792583 0.732474 0.633612 0.849684 0.516402C0.966894 0.399191 1.12587 0.333344 1.29163 0.333344H16.7083C16.8741 0.333344 17.033 0.399191 17.1502 0.516402C17.2674 0.633612 17.3333 0.792583 17.3333 0.958344C17.3333 1.1241 17.2674 1.28308 17.1502 1.40029C17.033 1.5175 16.8741 1.58334 16.7083 1.58334H1.29163C1.12587 1.58334 0.966894 1.5175 0.849684 1.40029C0.732474 1.28308 0.666626 1.1241 0.666626 0.958344ZM4.18329 3.85001C4.30048 3.73297 4.45933 3.66723 4.62496 3.66723C4.79058 3.66723 4.94944 3.73297 5.06663 3.85001L7.56663 6.35001C7.62803 6.40723 7.67728 6.47623 7.71144 6.5529C7.7456 6.62956 7.76397 6.71232 7.76545 6.79624C7.76693 6.88016 7.7515 6.96352 7.72006 7.04134C7.68863 7.11917 7.64184 7.18986 7.58249 7.24921C7.52314 7.30856 7.45245 7.35535 7.37462 7.38678C7.2968 7.41821 7.21344 7.43365 7.12952 7.43217C7.04561 7.43069 6.96284 7.41232 6.88618 7.37816C6.80951 7.344 6.74051 7.29475 6.68329 7.23334L5.24996 5.80001V12.625C5.24996 12.7908 5.18411 12.9497 5.0669 13.067C4.94969 13.1842 4.79072 13.25 4.62496 13.25C4.4592 13.25 4.30023 13.1842 4.18302 13.067C4.06581 12.9497 3.99996 12.7908 3.99996 12.625V5.80001L2.56663 7.23334C2.44815 7.34374 2.29144 7.40385 2.12952 7.40099C1.96761 7.39813 1.81312 7.33254 1.69861 7.21803C1.5841 7.10352 1.5185 6.94903 1.51565 6.78711C1.51279 6.62519 1.57289 6.46849 1.68329 6.35001L4.18329 3.85001ZM8.58329 4.29168C8.58329 4.12592 8.64914 3.96695 8.76635 3.84974C8.88356 3.73253 9.04253 3.66668 9.20829 3.66668H16.7083C16.8741 3.66668 17.033 3.73253 17.1502 3.84974C17.2674 3.96695 17.3333 4.12592 17.3333 4.29168C17.3333 4.45744 17.2674 4.61641 17.1502 4.73362C17.033 4.85083 16.8741 4.91668 16.7083 4.91668H9.20829C9.04253 4.91668 8.88356 4.85083 8.76635 4.73362C8.64914 4.61641 8.58329 4.45744 8.58329 4.29168Z" fill="#344054"/>
</svg>
