<svg width="17" height="16" viewBox="0 0 17 16" fill="none" xmlns="http://www.w3.org/2000/svg">
<path d="M8.49967 1.33325C12.1817 1.33325 15.1663 4.31792 15.1663 7.99992C15.1663 11.6819 12.1817 14.6666 8.49967 14.6666C4.81767 14.6666 1.83301 11.6819 1.83301 7.99992C1.83301 4.31792 4.81767 1.33325 8.49967 1.33325ZM8.49967 2.66659C7.08519 2.66659 5.72863 3.22849 4.72844 4.22868C3.72824 5.22888 3.16634 6.58543 3.16634 7.99992C3.16634 9.41441 3.72824 10.771 4.72844 11.7712C5.72863 12.7713 7.08519 13.3333 8.49967 13.3333C9.91416 13.3333 11.2707 12.7713 12.2709 11.7712C13.2711 10.771 13.833 9.41441 13.833 7.99992C13.833 6.58543 13.2711 5.22888 12.2709 4.22868C11.2707 3.22849 9.91416 2.66659 8.49967 2.66659ZM8.49967 3.99992C8.66296 3.99994 8.82057 4.05989 8.94259 4.1684C9.06461 4.2769 9.14257 4.42642 9.16167 4.58859L9.16634 4.66659V7.72392L10.971 9.52859C11.0906 9.64856 11.16 9.80954 11.1652 9.97884C11.1703 10.1481 11.1109 10.3131 10.9988 10.4401C10.8868 10.5671 10.7306 10.6468 10.562 10.6629C10.3934 10.6789 10.225 10.6302 10.091 10.5266L10.0283 10.4713L8.02834 8.47125C7.92473 8.36755 7.85818 8.23259 7.83901 8.08725L7.83301 7.99992V4.66659C7.83301 4.48977 7.90325 4.32021 8.02827 4.19518C8.15329 4.07016 8.32286 3.99992 8.49967 3.99992Z" fill="#64748B"/>
</svg>
