<svg width="8" height="15" viewBox="0 0 8 15" fill="none" xmlns="http://www.w3.org/2000/svg">
<path d="M5.09906 0.530481C4.91397 0.534293 4.73516 0.600668 4.59719 0.761668C4.04556 1.40573 4.17619 1.88823 4.26384 2.10092C4.78281 0.498918 5.32041 1.93748 5.99641 1.31729C6.26563 1.07029 5.65431 0.519043 5.09906 0.530481ZM2.5 2.09711C1.87519 2.10445 1.45209 2.92273 1.70906 3.14382C2.40444 3.74189 2.72384 2.32961 3.54919 2.99373C3.35506 2.57067 3.12481 2.08979 2.5 2.09711ZM5.43225 2.37732C5.03963 2.38726 4.7535 2.67389 4.5 2.93457C5.5 2.58489 5.32844 4.0227 6.18384 3.69176C6.50003 3.56945 6.37509 2.65676 5.78875 2.44076C5.6605 2.39351 5.54219 2.37451 5.43225 2.37732ZM3.71875 3.31586V4.31586H2.76937L2.56938 5.31586H2.21875V5.87836H2.45687L1.97509 8.28742L1.92528 8.31586H1.5V8.87836H1.85694L0.769437 14.3159H0V14.8784H8V14.3159H7.23063L6.14306 8.87836H6.5V8.31586H6.07469L6.02491 8.28742L5.54309 5.87836H5.78125V5.31586H5.43062L5.23063 4.31586H4.28125V3.31586H3.71875ZM3.23063 4.87836H3.71875V5.31586H3.14313L3.23063 4.87836ZM4.28125 4.87836H4.76937L4.85688 5.31586H4.28125V4.87836ZM3.03062 5.87836H3.71875V6.96961L2.90531 6.50476L3.03062 5.87836ZM4.28125 5.87836H4.96937L5.09469 6.50476L4.28125 6.96961V5.87836ZM2.789 7.08617L3.43306 7.45423L2.62281 7.91736L2.789 7.08617ZM5.211 7.08617L5.37719 7.91732L4.56688 7.4542L5.211 7.08617ZM3.71875 7.93895V8.31589H3.05906L3.71875 7.93895ZM4.28125 7.93895L4.94094 8.31589H4.28125V7.93895ZM2.43062 8.87839H3.71875V10.3736L2.23078 9.87764L2.43062 8.87839ZM4.28125 8.87839H5.56938L5.76959 9.87926L4.28125 10.3941V8.87839ZM2.11963 10.4334L3.16275 10.7811L1.96734 11.1947L2.11963 10.4334ZM5.88087 10.436L6.02197 11.1413L4.91181 10.7713L5.88087 10.436ZM4.28125 11.1539L5.79813 11.6595L4.28125 12.4869V11.1539ZM3.71875 11.184V12.4869L2.25719 11.6896L3.71875 11.184ZM1.791 12.0762L3.41266 12.9606L1.39391 14.0618L1.791 12.0762ZM6.20897 12.0762L6.60609 14.0618L4.58741 12.9606L6.20897 12.0762ZM3.71875 13.4345V14.3158H2.10297L3.71875 13.4345ZM4.28125 13.4345L5.89703 14.3158H4.28125V13.4345Z" fill="#64748B"/>
</svg>
