<svg width="20" height="20" viewBox="0 0 20 20" fill="none" xmlns="http://www.w3.org/2000/svg">
<g clip-path="url(#clip0_445_4579)">
<path d="M5.81977 4.42351L6.46778 4.03854C7.07426 3.67821 7.85264 3.85498 8.28593 4.45146L9.1487 5.63984C9.52471 6.15718 9.54542 6.86329 9.19993 7.38504L8.23992 8.83688C8.47707 9.51833 8.8706 10.152 9.42051 10.738C9.94599 11.3063 10.5799 11.7636 11.2849 12.0831L12.6493 11.2481C13.1662 10.9324 13.8258 11.0066 14.286 11.432L15.3577 12.423C15.8934 12.9178 16.0082 13.7438 15.6274 14.3558L15.2192 15.0118C14.813 15.6646 14.1027 16.0318 13.3533 15.9749C11.5855 15.8411 9.71659 14.664 7.74662 12.4436C5.77391 10.2193 4.7867 8.1738 4.78499 6.30723C4.78432 5.52192 5.17845 4.80488 5.82107 4.42321" fill="#64748B"/>
</g>
<defs>
<clipPath id="clip0_445_4579">
<rect width="16" height="16" fill="white" transform="translate(0.405273 4.00464) rotate(-13)"/>
</clipPath>
</defs>
</svg>
