<svg width="17" height="16" viewBox="0 0 17 16" fill="none" xmlns="http://www.w3.org/2000/svg">
<g clip-path="url(#clip0_445_4222)">
<g clip-path="url(#clip1_445_4222)">
<path fill-rule="evenodd" clip-rule="evenodd" d="M16.441 7.033C16.6623 8.84936 16.2542 10.6867 15.2848 12.2386C14.3155 13.7905 12.8434 14.9633 11.1141 15.5612C9.38474 16.1592 7.50269 16.1463 5.78174 15.5246C4.06079 14.9029 2.60496 13.7101 1.657 12.145C1.55383 11.9749 1.52247 11.7707 1.56983 11.5775C1.61718 11.3842 1.73936 11.2177 1.9095 11.1145C2.07964 11.0113 2.28379 10.98 2.47704 11.0273C2.6703 11.0747 2.83683 11.1969 2.94 11.367C3.45064 12.2102 4.14639 12.9263 4.97459 13.4609C5.80279 13.9956 6.74176 14.3348 7.72043 14.4531C8.6991 14.5713 9.69184 14.4654 10.6235 14.1433C11.5552 13.8212 12.4015 13.2915 13.0982 12.5941C13.795 11.8967 14.324 11.05 14.6452 10.118C14.9664 9.18606 15.0714 8.19323 14.9523 7.21466C14.8332 6.23609 14.4931 5.29744 13.9577 4.46971C13.4223 3.64199 12.7057 2.94689 11.862 2.437C11.6917 2.3341 11.5693 2.16777 11.5217 1.97461C11.474 1.78144 11.5051 1.57727 11.608 1.407C11.7109 1.23673 11.8772 1.11431 12.0704 1.06668C12.2636 1.01905 12.4677 1.0501 12.638 1.153C13.6763 1.78059 14.5582 2.63609 15.217 3.65479C15.8759 4.67349 16.2944 5.82869 16.441 7.033ZM9.5 1C9.5 1.26522 9.39464 1.51957 9.20711 1.70711C9.01957 1.89464 8.76522 2 8.5 2C8.23478 2 7.98043 1.89464 7.79289 1.70711C7.60536 1.51957 7.5 1.26522 7.5 1C7.5 0.734784 7.60536 0.48043 7.79289 0.292893C7.98043 0.105357 8.23478 0 8.5 0C8.76522 0 9.01957 0.105357 9.20711 0.292893C9.39464 0.48043 9.5 0.734784 9.5 1ZM3.304 5C3.3707 4.88623 3.41423 4.76039 3.4321 4.62972C3.44996 4.49906 3.44181 4.36615 3.4081 4.23865C3.37439 4.11115 3.31579 3.99158 3.23569 3.88682C3.15558 3.78206 3.05554 3.69418 2.94133 3.62824C2.82712 3.56229 2.70099 3.5196 2.57021 3.5026C2.43943 3.4856 2.30658 3.49464 2.17931 3.52919C2.05203 3.56374 1.93285 3.62313 1.82863 3.70393C1.7244 3.78473 1.63718 3.88535 1.572 4C1.44148 4.22956 1.40706 4.50142 1.47625 4.75626C1.54544 5.01111 1.71262 5.22824 1.94131 5.36027C2.16999 5.49231 2.44162 5.52853 2.69692 5.46104C2.95221 5.39354 3.17045 5.22781 3.304 5ZM1.5 7C1.76522 7 2.01957 7.10536 2.20711 7.29289C2.39464 7.48043 2.5 7.73478 2.5 8C2.5 8.26522 2.39464 8.51957 2.20711 8.70711C2.01957 8.89464 1.76522 9 1.5 9C1.23478 9 0.98043 8.89464 0.792893 8.70711C0.605357 8.51957 0.5 8.26522 0.5 8C0.5 7.73478 0.605357 7.48043 0.792893 7.29289C0.98043 7.10536 1.23478 7 1.5 7ZM5.5 2.804C5.61465 2.73882 5.71527 2.6516 5.79607 2.54737C5.87687 2.44315 5.93626 2.32397 5.97081 2.19669C6.00536 2.06942 6.0144 1.93657 5.9974 1.80579C5.9804 1.67501 5.93771 1.54888 5.87176 1.43467C5.80582 1.32046 5.71794 1.22042 5.61318 1.14031C5.50842 1.06021 5.38885 1.00161 5.26135 0.967901C5.13385 0.934192 5.00094 0.926036 4.87028 0.943902C4.73961 0.961767 4.61377 1.0053 4.5 1.072C4.27219 1.20555 4.10646 1.42379 4.03896 1.67908C3.97147 1.93438 4.00769 2.20601 4.13973 2.43469C4.27176 2.66338 4.48889 2.83056 4.74374 2.89975C4.99858 2.96894 5.27044 2.93452 5.5 2.804Z" fill="#64748B"/>
</g>
</g>
<defs>
<clipPath id="clip0_445_4222">
<rect width="16" height="16" fill="white" transform="translate(0.5)"/>
</clipPath>
<clipPath id="clip1_445_4222">
<rect width="16" height="16" fill="white" transform="translate(0.5)"/>
</clipPath>
</defs>
</svg>
