<svg width="36" height="32" viewBox="0 0 36 32" fill="none" xmlns="http://www.w3.org/2000/svg">
<path fill-rule="evenodd" clip-rule="evenodd" d="M17.9977 0.250001C18.3555 0.249612 18.7042 0.362957 18.9934 0.573666C19.2825 0.784375 19.4973 1.08154 19.6065 1.42225L27 24.5275L29.8935 15.487C30.0022 15.1462 30.2164 14.8488 30.5052 14.6377C30.7939 14.4266 31.1423 14.3127 31.5 14.3125H34.3125C34.7601 14.3125 35.1893 14.4903 35.5057 14.8068C35.8222 15.1232 36 15.5524 36 16C36 16.4476 35.8222 16.8768 35.5057 17.1932C35.1893 17.5097 34.7601 17.6875 34.3125 17.6875H32.7308L28.6065 30.5778C28.4971 30.9179 28.2827 31.2145 27.994 31.4249C27.7053 31.6353 27.3573 31.7487 27 31.7487C26.6427 31.7487 26.2947 31.6353 26.006 31.4249C25.7173 31.2145 25.5029 30.9179 25.3935 30.5778L18.0112 7.5085L12.8588 23.821C12.7524 24.1571 12.5435 24.4515 12.2614 24.6629C11.9792 24.8742 11.6379 24.9919 11.2854 24.9993C10.933 25.0068 10.587 24.9036 10.2962 24.7044C10.0053 24.5052 9.78415 24.2198 9.66375 23.8885L6.81975 16.0675L6.66225 16.5355C6.55038 16.8714 6.3357 17.1636 6.0486 17.3707C5.7615 17.5779 5.41653 17.6895 5.0625 17.6898H1.6875C1.23995 17.6898 0.810725 17.512 0.494257 17.1955C0.17779 16.879 0 16.4498 0 16.0023C0 15.5547 0.17779 15.1255 0.494257 14.809C0.810725 14.4925 1.23995 14.3148 1.6875 14.3148H3.8475L5.148 10.4065C5.25825 10.0736 5.46946 9.78335 5.75228 9.57603C6.0351 9.36872 6.37548 9.25466 6.72612 9.24971C7.07675 9.24476 7.42021 9.34917 7.70877 9.54842C7.99733 9.74767 8.21665 10.0319 8.33625 10.3615L11.1375 18.0678L16.3913 1.43125C16.4988 1.08923 16.7125 0.790355 17.0014 0.577962C17.2902 0.365568 17.6392 0.250696 17.9977 0.250001Z" fill="#227CF2"/>
</svg>
