<svg width="56" height="56" viewBox="0 0 56 56" fill="none" xmlns="http://www.w3.org/2000/svg">
<path d="M52.9771 12.239L27.8734 0.170124C27.6312 0.0550571 27.3666 -0.00304543 27.0993 0.000122955C26.832 0.00329134 26.5688 0.0676494 26.3292 0.188427C26.0896 0.309205 25.8799 0.483307 25.7154 0.697828C25.5509 0.91235 25.436 1.16179 25.3792 1.42767C25.3733 1.44738 23.3651 10.9479 20.3828 20.4189C19.3661 23.6653 18.2274 26.8742 17.0384 29.6928L20.2628 31.242C24.1359 22.0923 27.2034 9.46174 28.3576 4.40989L50.1768 14.8861C49.5068 17.8683 47.789 25.181 45.4903 32.4818C44.005 37.2124 42.266 41.9371 40.4843 45.3569C38.7608 48.8851 36.6925 50.6196 36.2297 50.387C33.4798 50.4462 31.5471 47.8995 30.2457 44.6355C29.6983 43.1994 29.2727 41.7183 28.9734 40.2084C28.7255 38.9903 28.65 38.2255 28.6442 38.2255C28.6145 37.9171 28.5059 37.6219 28.3292 37.3694C28.1525 37.117 27.9139 36.916 27.6372 36.7867L2.53936 24.7237C2.25361 24.5856 1.93689 24.5274 1.62173 24.5551C1.30657 24.5828 1.00435 24.6955 0.746105 24.8814C0.489036 25.0683 0.285412 25.3214 0.1561 25.6148C0.0267873 25.9081 -0.0235619 26.2312 0.0102117 26.5509C0.0257042 26.6416 0.387841 30.1974 1.84413 33.9168C2.85502 36.5186 4.56887 39.4713 7.35558 40.9634L32.4457 53.046L32.4573 53.0223C33.5456 53.6038 34.7812 53.9823 36.2278 54C39.7078 53.7694 41.6056 50.7123 43.6216 47.052C49.4312 35.8366 53.9241 14.3322 53.9589 14.2534C54.0449 13.8553 53.9951 13.4392 53.8176 13.0738C53.6402 12.7083 53.3458 12.4153 52.9829 12.2429L52.9771 12.239Z" fill="#FF8500"/>
</svg>
